# xmcd
# 
# Track frame offsets:
#     150
#     21557
#     41617
#     57380
#     75005
#     92625
#     110832
#     132482
#     152880
#     159615
#     177317
#     198810
# 
# Disc length: 2916
# 
# Revision: 0
# Processed by: cddbd v1.5.2PL0 Copyright (c) Steve Scherf et al.
# Submitted via: fre:ac v1.0.31
# 
DISCID=9c0b620c
DTITLE=Firehouse - Hold Your Fire
DYEAR=1992
DGENRE=Rock/Pop
TTITLE0=Reach For The Sky
TTITLE1=Rock You Tonight
TTITLE2=Sleeping With You
TTITLE3=You're Too Bad
TTITLE4=When I Look Into Your Eyes
TTITLE5=Get In Touch
TTITLE6=Hold Your Fire
TTITLE7=The Meaning Of Love
TTITLE8=Talk Of The Town
TTITLE9=Life In The Real World
TTITLE10=Mama Didn't Raise No Fool
TTITLE11=Hold The Dream
EXTD=
EXTT0=
EXTT1=
EXTT2=
EXTT3=
EXTT4=
EXTT5=
EXTT6=
EXTT7=
EXTT8=
EXTT9=
EXTT10=
EXTT11=
PLAYORDER=
